<?xml version="1.0" standalone="no"?>
<!DOCTYPE svg PUBLIC "-//W3C//DTD SVG 20010904//EN"
 "http://www.w3.org/TR/2001/REC-SVG-20010904/DTD/svg10.dtd">
<svg version="1.0" xmlns="http://www.w3.org/2000/svg"
 width="500.000000pt" height="500.000000pt" viewBox="0 0 500.000000 500.000000"
 preserveAspectRatio="xMidYMid meet">

<g transform="translate(0.000000,500.000000) scale(0.100000,-0.100000)"
fill="#000000" stroke="none">
<path d="M3670 4290 c-106 -18 -289 -97 -402 -173 -65 -43 -70 -45 -155 -49
-78 -3 -98 -9 -163 -41 l-74 -37 -54 27 c-77 38 -183 38 -264 1 -50 -23 -59
-24 -76 -12 -11 8 -48 21 -82 30 -73 18 -159 8 -217 -26 -43 -25 -48 -25 -85
1 -47 34 -142 59 -223 59 -42 0 -77 5 -80 11 -8 13 -142 99 -154 99 -4 0 -46
18 -92 39 -181 85 -326 95 -358 25 -16 -35 -28 -128 -42 -314 -13 -182 -6
-363 17 -479 15 -73 15 -73 -8 -89 -42 -27 -138 -133 -160 -176 -12 -22 -31
-67 -42 -98 -17 -48 -31 -66 -81 -106 -54 -43 -135 -142 -135 -165 0 -5 17 -7
39 -5 l38 3 -56 -62 c-67 -73 -150 -218 -185 -323 -25 -78 -42 -182 -32 -198
3 -6 28 -4 63 4 32 8 63 14 69 14 8 0 13 -44 17 -132 3 -97 12 -160 30 -230
30 -114 106 -278 169 -363 99 -134 118 -167 118 -202 0 -43 -22 -85 -56 -111
l-27 -19 25 -17 c51 -33 252 -45 296 -17 8 5 -5 27 -39 67 -64 74 -134 216
-155 314 -29 138 0 295 86 459 22 41 38 76 36 78 -2 2 -36 -32 -77 -74 -81
-85 -121 -156 -146 -260 l-17 -67 -38 79 c-50 107 -68 182 -68 287 0 111 14
175 55 263 34 71 81 128 145 178 l35 27 -35 -6 c-19 -4 -87 -27 -150 -51 -150
-58 -220 -83 -220 -77 0 2 25 47 55 100 95 164 227 315 344 392 69 46 66 49
-24 27 -80 -19 -81 -19 -48 9 27 23 179 116 190 116 2 0 37 19 76 42 40 23
112 63 162 89 53 28 83 50 75 53 -75 24 -301 32 -355 12 -11 -4 3 14 31 41 53
51 171 118 259 148 79 26 232 55 330 62 l89 6 -39 17 c-99 42 -254 57 -320 31
l-29 -12 19 21 c10 12 57 40 104 63 84 42 85 42 195 42 83 -1 121 -5 150 -18
75 -33 56 0 -39 71 l-60 45 64 -7 c44 -4 83 -16 129 -41 l65 -34 -6 58 c-2 31
-15 77 -27 102 -28 54 -103 153 -133 174 -19 13 -19 15 -3 15 37 0 138 -65
193 -123 47 -51 57 -58 64 -44 17 29 97 77 144 86 58 11 119 -2 162 -35 19
-14 34 -20 38 -14 16 26 86 50 145 50 69 0 102 -14 160 -66 l39 -36 25 29 c14
15 26 31 26 35 0 16 112 90 162 109 l53 20 -51 -53 c-27 -29 -63 -70 -79 -92
-58 -80 -92 -270 -36 -202 19 23 105 55 167 62 l59 7 -62 -46 c-34 -25 -67
-55 -73 -67 -6 -11 -9 -20 -8 -20 2 0 32 9 66 20 109 34 238 21 342 -36 40
-22 126 -86 93 -69 -62 31 -229 19 -324 -22 l-44 -20 85 -6 c99 -8 267 -39
328 -61 83 -30 205 -100 256 -147 l51 -48 -35 9 c-47 13 -165 13 -253 -1 -63
-10 -121 -28 -92 -29 6 0 69 -32 140 -71 72 -39 159 -87 195 -106 80 -44 203
-124 197 -129 -2 -3 -33 2 -68 11 -35 8 -68 15 -73 15 -5 0 26 -26 70 -58 73
-54 130 -113 226 -232 33 -42 131 -201 144 -234 6 -16 -35 -4 -216 67 -63 24
-131 48 -150 52 l-35 8 51 -41 c94 -74 163 -202 185 -344 20 -129 -4 -256 -73
-392 l-32 -61 -13 63 c-23 114 -85 212 -201 317 l-34 30 50 -98 c84 -162 112
-335 77 -472 -21 -85 -100 -236 -157 -299 l-49 -55 38 -8 c69 -13 197 -8 247
11 25 10 46 20 46 23 0 3 -16 21 -35 40 -35 34 -52 84 -41 125 3 13 40 70 83
128 150 203 220 397 230 633 4 90 10 137 17 137 12 -1 91 -18 120 -26 18 -6
18 -2 14 62 -12 154 -107 350 -232 482 l-40 42 42 0 c23 0 42 3 42 8 0 27
-120 158 -176 193 -25 15 -34 31 -49 85 -21 78 -75 155 -162 234 l-61 55 14
65 c16 76 18 380 4 597 -10 168 -30 228 -77 239 -52 11 -58 11 -103 4z m-2323
-392 c-3 -8 -6 -5 -6 6 -1 11 2 17 5 13 3 -3 4 -12 1 -19z m31 -14 c17 1 32
-3 32 -7 0 -5 5 -5 12 -1 8 5 9 2 5 -10 -4 -10 -2 -16 6 -15 6 1 27 1 45 0 39
-1 35 -16 -6 -24 -15 -3 -39 -14 -51 -24 -23 -19 -22 -19 47 -15 80 5 162 -15
232 -55 l44 -26 -79 -22 c-140 -39 -205 -78 -275 -166 l-40 -51 -16 38 c-19
45 -43 172 -44 228 0 22 5 68 11 103 9 53 14 61 27 55 10 -5 32 -8 50 -8z
m2338 -61 c10 -82 -1 -209 -26 -285 -21 -69 -34 -83 -45 -49 -3 11 -35 46 -70
79 -68 64 -171 113 -268 127 l-48 7 34 24 c63 43 154 66 240 62 77 -3 78 -3
56 15 -13 10 -35 21 -51 24 -17 3 -28 12 -28 22 0 13 2 13 9 2 7 -10 12 -8 25
10 14 21 21 19 17 -4 -1 -5 4 -7 11 -4 7 2 12 9 11 15 -2 7 11 10 31 8 18 -1
42 1 52 5 32 11 43 -1 50 -58z m-229 21 c-3 -3 -12 -4 -19 -1 -8 3 -5 6 6 6
11 1 17 -2 13 -5z m-2332 -749 c-22 -18 -32 -21 -42 -13 -10 8 -12 7 -8 -4 7
-17 -20 -32 -37 -21 -7 3 -8 1 -4 -5 4 -7 -1 -10 -14 -9 -11 1 -20 2 -20 4 0
9 75 51 88 49 8 -2 24 6 35 17 10 10 22 16 25 12 4 -4 -6 -17 -23 -30z m2705
14 c0 -5 4 -8 9 -5 5 4 20 -3 33 -14 12 -11 32 -27 43 -35 18 -13 16 -13 -15
0 -19 7 -34 19 -32 26 2 6 -3 9 -10 6 -8 -2 -24 4 -37 14 -18 15 -19 19 -7 19
9 0 16 -5 16 -11z m157 -75 c-3 -3 -12 -4 -19 -1 -8 3 -5 6 6 6 11 1 17 -2 13
-5z"/>
<path d="M2467 3553 c-112 -105 -207 -300 -207 -424 0 -26 -5 -39 -17 -43 -10
-4 -14 -4 -11 -1 9 9 -43 66 -54 59 -4 -3 -6 -10 -2 -15 3 -5 10 -7 15 -4 5 3
6 -1 3 -10 -6 -14 -8 -14 -24 0 -15 14 -17 13 -17 -2 0 -10 4 -24 10 -30 6 -9
6 -13 -2 -13 -6 0 -11 4 -11 8 0 5 -24 20 -52 34 -104 51 -213 71 -248 48 -11
-8 -7 -9 15 -5 29 6 29 6 7 -7 -13 -7 -33 -28 -44 -46 -19 -30 -19 -32 -2 -27
11 3 8 0 -6 -6 -14 -7 -63 -35 -109 -63 -46 -28 -113 -60 -148 -72 -52 -17
-60 -23 -41 -28 13 -3 40 -6 61 -6 20 0 37 -4 37 -8 0 -25 -127 -118 -215
-158 -31 -14 -53 -30 -49 -35 11 -19 83 -58 139 -77 l58 -18 -72 -32 c-39 -18
-76 -32 -82 -32 -18 0 6 -24 54 -54 42 -27 60 -67 36 -81 -7 -5 -6 -12 2 -22
10 -12 10 -16 -2 -24 -10 -6 -10 -9 -1 -9 25 0 11 -17 -33 -39 -55 -27 -61
-37 -35 -51 11 -6 20 -7 20 -3 0 4 5 2 11 -4 6 -6 19 -9 28 -6 9 4 13 3 10 -1
-4 -4 -17 -9 -29 -11 -30 -6 -31 -8 -14 -23 12 -11 15 -10 20 2 3 9 13 16 20
16 8 0 41 13 73 30 72 36 199 70 262 70 41 0 50 4 72 34 15 18 39 37 54 40 15
4 60 23 99 42 79 37 148 104 183 178 12 23 33 49 47 57 40 21 132 125 160 180
13 27 35 89 48 137 l23 86 16 -73 c31 -136 113 -266 202 -321 20 -12 48 -46
69 -83 53 -95 114 -144 236 -188 36 -12 71 -31 78 -41 27 -37 45 -48 80 -48
51 0 194 -36 242 -60 22 -11 40 -18 40 -15 0 3 9 1 21 -5 30 -16 67 -22 73
-11 4 5 -5 8 -19 6 -14 -1 -27 1 -30 4 -2 4 12 8 31 9 76 5 77 15 9 51 -36 19
-63 37 -61 39 3 2 13 -1 25 -7 17 -9 19 -8 16 6 -18 85 -18 84 -1 77 9 -3 16
-1 16 5 0 6 -8 11 -17 11 -15 0 -16 2 -3 10 8 5 11 10 5 10 -5 0 2 8 15 17 14
10 35 26 47 37 l22 19 -75 33 c-42 18 -78 35 -81 38 -3 3 8 8 23 11 52 12 108
36 143 62 l33 26 -88 45 c-51 27 -113 69 -148 102 l-59 56 36 -4 c21 -2 54 -1
74 3 l37 7 -66 22 c-89 30 -238 122 -223 137 1 2 -3 10 -11 17 -8 7 -14 8 -14
2 0 -5 -6 -10 -14 -10 -9 0 -17 15 -21 39 -6 36 -10 40 -45 46 -41 7 -134 -14
-174 -40 -37 -23 -65 -27 -80 -12 -11 11 -12 17 -3 26 8 8 8 11 -2 11 -7 0 -9
5 -5 13 8 14 -42 -27 -69 -57 -16 -17 -20 -18 -28 -5 -5 7 -9 30 -9 50 0 42
-33 156 -61 211 -41 80 -132 195 -174 220 -6 4 -28 -9 -48 -29z m-477 -613
c55 -55 -24 -135 -82 -83 -25 23 -23 68 4 87 30 21 54 20 78 -4z m1067 -2 c28
-26 29 -52 3 -78 -24 -24 -57 -26 -82 -3 -24 21 -23 58 2 83 26 26 48 25 77
-2z m-1218 -83 c21 -11 30 -24 35 -53 7 -48 62 -102 104 -102 42 0 92 36 110
80 10 22 20 40 24 40 15 0 49 -95 43 -122 -8 -36 -65 -84 -117 -99 -165 -46
-307 37 -325 190 -4 36 -1 51 12 64 20 21 76 22 114 2z m1442 5 c14 -8 19 -21
19 -56 0 -121 -100 -217 -229 -218 -110 -2 -211 59 -211 127 0 18 10 52 21 77
l20 44 24 -51 c37 -81 101 -104 166 -60 38 26 59 60 59 98 0 41 81 65 131 39z
m-1231 -295 c-7 -8 -17 -15 -23 -15 -6 0 -2 7 9 15 25 19 30 19 14 0z m1003
-12 c-7 -2 -21 -2 -30 0 -10 3 -4 5 12 5 17 0 24 -2 18 -5z"/>
<path d="M3170 3149 c0 -5 5 -7 10 -4 6 3 10 8 10 11 0 2 -4 4 -10 4 -5 0 -10
-5 -10 -11z"/>
<path d="M2694 2417 c-8 -22 -36 -30 -66 -18 -31 12 -43 4 -73 -45 -14 -21
-25 -33 -25 -26 0 14 -40 17 -40 2 0 -5 8 -7 18 -3 13 5 14 3 6 -6 -17 -18
-50 2 -62 38 -6 16 -8 31 -6 34 12 11 -48 16 -65 5 -15 -9 -24 -8 -45 5 -31
21 -36 21 -36 2 0 -23 48 -64 84 -71 45 -8 101 -100 93 -152 -12 -70 -103
-135 -223 -158 -36 -7 -37 -8 -14 -15 69 -20 167 4 227 56 l37 32 50 -38 c68
-51 163 -73 221 -50 16 7 11 10 -25 16 -141 24 -250 133 -208 208 37 66 62 97
76 97 30 0 81 39 88 65 7 29 -2 47 -12 22z"/>
<path d="M1735 2285 c-84 -19 -140 -40 -197 -75 -26 -17 -52 -30 -57 -30 -4 0
-16 -10 -27 -22 -10 -12 -13 -18 -7 -14 9 5 11 2 7 -8 -3 -9 -1 -16 6 -16 6 0
18 -6 26 -14 12 -13 26 -9 102 30 48 24 126 54 175 66 64 15 87 25 87 37 0 9
3 26 6 39 6 20 3 22 -27 21 -19 0 -61 -7 -94 -14z"/>
<path d="M3158 2266 c5 -43 16 -50 102 -68 36 -7 106 -33 157 -59 89 -44 92
-45 127 -31 38 15 50 38 15 29 -16 -4 -18 -3 -9 7 13 16 7 21 -80 69 -76 41
-175 73 -257 82 l-59 7 4 -36z"/>
<path d="M1820 2182 c-78 -9 -280 -96 -264 -112 5 -5 37 -15 70 -23 l61 -15
87 41 c87 40 92 47 78 92 -5 14 -14 19 -32 17z"/>
<path d="M3165 2177 c-19 -62 -19 -61 68 -101 70 -33 89 -37 129 -33 26 3 59
12 73 20 l27 13 -59 31 c-52 27 -149 62 -211 76 -13 3 -25 0 -27 -6z"/>
<path d="M1787 2038 c-48 -23 -87 -44 -87 -47 0 -3 25 -14 55 -24 58 -19 64
-18 121 25 32 23 32 24 15 56 l-16 32 -88 -42z"/>
<path d="M3119 2047 l-17 -33 47 -32 47 -32 49 16 c28 9 53 20 57 23 7 6 -148
92 -163 91 -2 0 -11 -15 -20 -33z"/>
<path d="M1886 1957 l-29 -24 66 -16 c92 -23 95 -22 51 23 -22 22 -43 40 -49
40 -5 0 -23 -11 -39 -23z"/>
<path d="M3027 1934 c-26 -25 -39 -43 -30 -40 10 2 47 12 82 21 36 8 67 17 68
19 6 6 -48 46 -61 46 -6 0 -32 -21 -59 -46z"/>
<path d="M1489 1614 c-71 -68 -114 -133 -145 -220 -39 -106 -41 -162 -10 -247
74 -203 300 -360 550 -383 104 -9 116 -3 78 40 -75 86 -146 232 -180 371 l-10
40 -3 -50 c-7 -125 8 -196 57 -262 23 -32 9 -29 -91 17 -111 51 -187 125 -241
235 -32 66 -38 88 -42 162 -7 125 22 229 90 326 30 42 12 32 -53 -29z"/>
<path d="M3474 1637 c70 -91 108 -250 87 -363 -32 -173 -157 -310 -349 -382
l-52 -20 30 38 c43 55 65 147 55 235 l-8 70 -18 -84 c-21 -93 -86 -226 -150
-303 -57 -68 -54 -72 47 -64 236 19 451 153 544 338 34 68 40 90 40 142 0 123
-51 236 -158 348 -76 80 -113 104 -68 45z"/>
<path d="M3087 1245 c-14 -134 -70 -247 -171 -353 -96 -100 -161 -144 -300
-206 l-107 -46 -97 41 c-53 22 -121 55 -151 72 -66 37 -218 185 -254 247 -34
59 -77 189 -77 234 0 53 -18 53 -27 -1 -29 -173 32 -366 154 -487 77 -78 162
-132 312 -200 124 -56 149 -63 167 -48 5 5 36 19 69 32 153 59 283 140 367
227 47 48 113 180 133 264 17 75 18 164 1 234 l-12 50 -7 -60z"/>
</g>
</svg>
